<svg xmlns="http://www.w3.org/2000/svg" xmlns:xlink="http://www.w3.org/1999/xlink" preserveAspectRatio="xMidYMid meet" version="1.0" viewBox="0.0 8.1 278.8 94.1" zoomAndPan="magnify" style="fill: rgb(0, 0, 0);" original_string_length="3019" width="437.6244199043621px" height="147.20094124055817px"><g id="__id0_s6hn0dmd049"><path d="M0 96.5H278.8V98.6H0z" style="fill: rgb(202, 180, 234);"/></g><g id="__id1_s6hn0dmd049"><path d="M0 96.5H166.2V98.6H0z" style="fill: rgb(55, 37, 87);"/></g><g id="__id2_s6hn0dmd049"><path d="M172.4,97.6c0,2.5-2.1,4.6-4.6,4.6s-4.6-2.1-4.6-4.6s2.1-4.6,4.6-4.6C170.4,93,172.4,95.1,172.4,97.6z" style="fill: rgb(202, 180, 234);"/></g><g id="__id3_s6hn0dmd049" style="fill: rgb(202, 180, 234);"><path d="M214.1 43.3L207.1 47.3 200.1 51.4 200.1 43.3 200.1 35.2 207.1 39.3z" style="fill: inherit;"/><path d="M214.1 35.2H216.4V51.400000000000006H214.1z" style="fill: inherit;"/></g><g id="__id4_s6hn0dmd049" style="fill: rgb(202, 180, 234);"><path d="M63.3 43.3L70.2 39.3 77.2 35.2 77.2 43.3 77.2 51.4 70.2 47.3z" style="fill: inherit;"/><path d="M61.1 35.2H63.4V51.400000000000006H61.1z" style="fill: inherit;"/></g><g id="__id5_s6hn0dmd049"><circle cx="138.7" cy="43.3" r="35.2" style="fill: rgb(55, 37, 87);"/></g><g id="__id6_s6hn0dmd049"><path d="M160.4,41.7c1.3,0.7,1.3,2.6,0,3.2l-16.1,8.6l-16.4,8.8c-1.2,0.7-2.7-0.2-2.7-1.6V43.3V26 c0-1.4,1.5-2.3,2.7-1.6l16.4,8.8L160.4,41.7z" style="fill: rgb(202, 180, 234);"/></g><g id="__id7_s6hn0dmd049"><path d="M266.6,43.3c0,4.8-3.9,8.6-8.6,8.6c-4.8,0-8.6-3.9-8.6-8.6c0-4.8,3.9-8.6,8.6-8.6 C262.8,34.7,266.6,38.5,266.6,43.3z" style="fill: rgb(55, 37, 87);"/></g><g><g><g id="__id8_s6hn0dmd049"><path d="M262.8,40l-1.8-1.8c-0.1-0.1-0.2-0.1-0.3-0.1c-0.1,0-0.2,0.2-0.2,0.3v0.9h-3.9c-1.8,0-3.3,1.5-3.3,3.3 c0,0.2,0.1,0.3,0.3,0.3h1.2c0.2,0,0.3-0.1,0.3-0.3c0-0.8,0.7-1.5,1.5-1.5h3.9V42c0,0.1,0.1,0.2,0.2,0.3c0.1,0,0.2,0,0.3-0.1 l1.8-1.8C262.9,40.3,262.9,40.1,262.8,40z" style="fill: rgb(202, 180, 234);"/></g></g><g><g id="__id9_s6hn0dmd049"><path d="M262.6,43.7h-1.2c-0.2,0-0.3,0.1-0.3,0.3c0,0.8-0.7,1.5-1.5,1.5h-3.9v-0.9c0-0.1-0.1-0.2-0.2-0.3 c-0.1,0-0.2,0-0.3,0.1l-1.8,1.8c-0.1,0.1-0.1,0.3,0,0.4l1.8,1.8c0.1,0.1,0.2,0.1,0.3,0.1s0.2-0.2,0.2-0.3v-0.9h3.9 c1.8,0,3.3-1.5,3.3-3.3C262.9,43.8,262.6,43.7,262.6,43.7z" style="fill: rgb(202, 180, 234);"/></g></g></g><g id="__id10_s6hn0dmd049"><path d="M29.4,43.3c0,4.8-3.9,8.6-8.6,8.6c-4.8,0-8.6-3.9-8.6-8.6c0-4.8,3.9-8.6,8.6-8.6 C25.6,34.7,29.4,38.5,29.4,43.3z" style="fill: rgb(55, 37, 87);"/></g><g><g><g id="__id11_s6hn0dmd049"><path d="M25.6,45l-1.8-1.5c-0.1-0.1-0.2-0.1-0.3,0c-0.1,0-0.2,0.2-0.2,0.3v0.9h-0.5c-0.4,0-0.8-0.2-1-0.6L19.9,41 c-0.4-0.7-1.2-1.1-2-1.1h-1.7V41h1.7c0.4,0,0.8,0.2,1,0.6l1.9,3.1c0.4,0.7,1.2,1.1,2,1.1h0.5v0.9c0,0.1,0.1,0.2,0.2,0.3h0.1 c0.1,0,0.1,0,0.2-0.1l1.8-1.5c0.1-0.1,0.1-0.1,0.1-0.2C25.6,45.1,25.6,45,25.6,45z" style="fill: rgb(202, 180, 234);"/></g></g><g><g id="__id12_s6hn0dmd049"><path d="M25.6,40.2l-1.8-1.5c-0.1-0.1-0.2-0.1-0.3,0c-0.1,0-0.2,0.2-0.2,0.3v0.9h-0.5c-0.8,0-1.6,0.4-2,1.1 l-0.1,0.2l0.7,1.1l0.4-0.7c0.2-0.4,0.6-0.6,1-0.6h0.5v0.9c0,0.1,0.1,0.2,0.2,0.3h0.1c0.1,0,0.1,0,0.2-0.1l1.8-1.5 c0.1-0.1,0.1-0.1,0.1-0.2S25.6,40.3,25.6,40.2z" style="fill: rgb(202, 180, 234);"/></g></g><g><g id="__id13_s6hn0dmd049"><path d="M19.2,43.4L18.9,44c-0.2,0.4-0.6,0.6-1,0.6h-1.7v1.2h1.7c0.8,0,1.6-0.4,2-1.1l0.1-0.2L19.2,43.4z" style="fill: rgb(202, 180, 234);"/></g></g></g></svg>